REM MD5 32361a76cab3864513d18f3af415b409
FILE "Euro Demo 34 (France).bin" BINARY
  TRACK 01 MODE2/2352
    INDEX 01 00:00:00
  TRACK 02 AUDIO
    INDEX 00 33:25:33
    INDEX 01 33:27:33
  TRACK 03 AUDIO
    INDEX 00 33:43:41
    INDEX 01 33:45:41
  TRACK 04 AUDIO
    INDEX 00 34:02:66
    INDEX 01 34:04:66
  TRACK 05 AUDIO
    INDEX 00 34:38:53
    INDEX 01 34:40:53
  TRACK 06 AUDIO
    INDEX 00 35:09:60
    INDEX 01 35:11:60
REM LEADOUT 38:13:17
